<svg xmlns="http://www.w3.org/2000/svg" viewBox="0 0 298.69 50"><defs><style>.cls-1,.cls-4{fill:#90c2eb;}.cls-1{stroke:#90c2eb;}.cls-1,.cls-2{stroke-miterlimit:10;}.cls-2,.cls-3{fill:#e9e9e9;}.cls-2{stroke:#e9e9e9;}</style></defs><g id="レイヤー_2" data-name="レイヤー 2"><g id="レイヤー_1-2" data-name="レイヤー 1"><path class="cls-1" d="M91.74,15.3v3.51c0,18.66-5.13,25.43-21.95,25.82V40.44c14.42-.24,19.06-5.07,19.06-21.58V15.3H72.78v15H69.92v-15H66.77V11.11h3.15V3.7h2.86v7.41H88.85V3.7h2.89v7.41h3.51V15.3Z"/><path class="cls-2" d="M110.06,9.5h-9.71V5.17h9.75c3.86,0,5.39.39,7.08,1.17v4.58C115.85,10,113.77,9.5,110.06,9.5Zm-9.67,34.94V40.05c17.4,0,24.68-7.31,24.68-35.32h3.05C128.12,35.67,119.45,44.44,100.39,44.44Z"/><path class="cls-2" d="M133.75,9.8V5.56h21.43V6A9.87,9.87,0,0,0,156,9.8Zm26.6,8.33c-1.79,17.83-9.13,25.33-25.21,26.5V40.34c15.69-.92,22.09-8.81,22.64-28.16a3.3,3.3,0,0,0,2.08.73,2.87,2.87,0,0,0,.87-.09C160.64,14.72,160.51,16.47,160.35,18.13ZM160,10.67c-1.85,0-3.38-2.19-3.38-5s1.53-5,3.38-5,3.38,2.29,3.38,5S161.87,10.67,160,10.67Zm0-7.55c-.94,0-1.75,1.17-1.75,2.58s.81,2.63,1.75,2.63,1.79-1.26,1.79-2.63S161,3.12,160,3.12Z"/><path class="cls-2" d="M170.91,44.78h-3c1-7.9,1.56-22.46,1.56-41.12h2.86C172.37,22.61,171.78,36.93,170.91,44.78Zm10.23-.1c-1,.1-2.31.15-3.77.15V3.66h2.89l-.1,36.44C189.42,39.91,192,31.33,192,8.28h2.83C194.81,33.72,192.05,43.32,181.14,44.68Z"/><path class="cls-3" d="M217.32,31.77l0,2.56V45.87h-2V34.4l.05-2.67c-1.56,4.53-4,9-6.89,11.62V39.52c2.36-2.31,4.67-6.69,5.84-10.38h-5a2.59,2.59,0,0,1,.12.25v4.43a35.69,35.69,0,0,1-2.78-6.25l0,1.6V45.91h-1.95V30.78L204.8,29a42.69,42.69,0,0,1-3.6,10.27V33.89a47.69,47.69,0,0,0,3.31-12.61h-3.22V18.14h3.46v-6h1.95v6h2.71v3.14H206.7V22A43.47,43.47,0,0,0,209,28.52V26.18h6.36v-6H212a39.51,39.51,0,0,1-1.12,4.38h-2.07a55.2,55.2,0,0,0,2.41-11.51h1.86c-.1,1.21-.3,2.67-.54,4.09h2.8V12.07h2v5.08h5.7v3h-5.7v6h6.38v3h-5.36c1.15,3.65,3.14,7.78,5.39,10v3.87C221,40.36,218.79,36.15,217.32,31.77Z"/><path class="cls-3" d="M246.05,45.84c-2.05,0-6.34-3.18-6.61-25.44H226.27v-3h13.17V12h2.15v5.41h4.8c-.42-1.57-1-4-1.29-4.83h2c.34,1.1,1.38,4.94,1.58,6h-.71V20.4h-6.31c.25,18.93,3.51,21.75,4.49,21.75s1.75-.81,2.85-2.71v4.17C248,45.14,246.88,45.84,246.05,45.84Zm-19.78-.77V42c1.21-.11,3.16-.44,5.21-.81V29.32h-4.82v-3h11.86v3h-5V40.83a43.39,43.39,0,0,0,5.73-1.5v3A80,80,0,0,1,226.27,45.07Z"/><path class="cls-3" d="M262.52,14.34a27.07,27.07,0,0,1-11.28,10.85V21.76a24.38,24.38,0,0,0,9.94-9.8h2.68a24.17,24.17,0,0,0,9.93,9.8v3.43A26.93,26.93,0,0,1,262.52,14.34Zm-1.73,18.12-2.71,8.77c3.73-.25,8.21-.62,10.82-1.06-.71-2.19-1.49-4.38-2-5.62h2.44a105,105,0,0,1,3.73,11.25h-2.51c-.12-.66-.41-1.64-.76-2.81a173.65,173.65,0,0,1-17.63,1.75V41.56c.63,0,1.85,0,3.36-.14l2.7-9h-6.48v-3h21.51v3Zm-4.68-7.2V22.34h12.74v2.92Z"/><path class="cls-3" d="M282.61,30.34v15.5h-2.07V33.05l0-1.65a23,23,0,0,1-4.24,4.94v-4c3.71-3.4,6.65-9.68,7.75-12.68h-7.75v-3h4.24V12h2.07v4.64h3.78V19.6a48.45,48.45,0,0,1-3.36,7.64l4.31,4.57v3.83ZM285.08,45V41.82h6.16V24.35h-4.46V21.14h4.46v-8.7h2.22v8.7h4.72v3.21h-4.72V41.82h5.23V45Z"/><polygon class="cls-4" points="0 0 0 27.27 27.27 0 0 0"/><polygon class="cls-3" points="0 33.02 0 50 50 50 50 0 33.02 0 0 33.02"/></g></g></svg>